<svg width="231" height="130" viewBox="0 0 231 130" fill="none" xmlns="http://www.w3.org/2000/svg">
<rect x="23.5201" y="2" width="183.971" height="98.556" rx="5.84036" fill="white"/>
<g filter="url(#filter0_d_1_377)">
<rect x="17.6794" y="7.84042" width="195.652" height="98.556" rx="5.84036" fill="white"/>
</g>
<g filter="url(#filter1_d_1_377)">
<rect x="11.8407" y="13.6808" width="207.333" height="98.556" rx="5.84036" fill="white"/>
</g>
<g filter="url(#filter2_d_1_377)">
<rect x="6" y="19.5211" width="219.013" height="105.126" rx="5.84036" fill="white" shape-rendering="crispEdges"/>
<circle cx="38.122" cy="51.6431" r="14.6009" fill="#419488"/>
<g clip-path="url(#clip0_1_377)">
<path d="M38.9426 52.0505C39.7632 52.0505 40.4202 52.3774 40.9954 53.0312C41.3238 53.4395 41.4888 54.0119 41.4888 54.5843C41.4888 55.1567 41.4888 55.8106 41.407 56.4644C41.407 56.5471 41.407 56.6285 41.3252 56.6285C40.8318 56.7913 40.3397 56.9554 39.8463 57.0368C39.2711 57.1182 38.6142 57.1182 38.039 57.1182C37.0535 57.1182 36.1499 56.8727 35.1644 56.6272C35.0826 56.6272 34.9177 56.5458 34.8359 56.5458C34.9177 55.7292 34.8359 54.9113 34.9177 54.176C34.9995 53.5222 35.328 52.9498 35.9032 52.5415C36.3966 52.2146 36.8886 52.0505 37.4638 52.0505L38.9426 52.0505ZM35.8227 50.0891C35.8227 50.7429 36.0681 51.2326 36.5615 51.7236C36.3979 51.8063 36.3148 51.8063 36.1512 51.8877C35.3306 52.296 34.7554 52.9498 34.5087 53.9305C34.427 54.1747 34.427 54.4202 34.427 54.6657V55.1568C34.1803 55.1568 33.8518 55.0754 33.6051 55.0754C32.9481 54.994 32.2911 54.8312 31.6342 54.6671C31.5524 54.5843 31.5524 54.5843 31.5524 54.5029V52.4601C31.5524 51.4794 32.2911 50.5801 33.1948 50.2532C33.4415 50.1704 33.77 50.089 34.0985 50.089L35.8227 50.0891ZM42.1457 50.0904C43.213 50.0904 43.9517 50.5801 44.4451 51.5608C44.6101 51.8877 44.6918 52.296 44.6918 52.6229L44.692 53.5015C44.692 53.5587 44.6921 53.6151 44.6921 53.6703L44.6925 53.9849C44.6927 54.0834 44.6929 54.1747 44.6932 54.2561L44.6929 54.2912C44.6915 54.3604 44.6815 54.4202 44.6114 54.4202C44.118 54.6657 43.5441 54.8298 43.0507 54.9112C42.6391 54.994 42.3106 54.994 41.9004 55.0753V54.5029C41.9004 53.7677 41.655 53.1139 41.1616 52.5415C40.8331 52.2146 40.4215 51.9704 40.0112 51.8063C40.0112 51.8063 39.9281 51.7249 39.8463 51.7249C40.3384 51.3166 40.5851 50.7442 40.5851 50.0904L42.1457 50.0904ZM38.2039 48.1276C39.1893 48.1276 40.093 48.9455 40.093 50.0077C40.1748 51.0698 39.2711 51.9691 38.2039 51.9691C37.1366 51.9691 36.3161 51.0698 36.233 50.0077C36.233 48.9455 37.1366 48.1276 38.2039 48.1276ZM41.4083 46.1675C42.3938 46.1675 43.2974 46.9854 43.2974 48.0476C43.3792 49.1097 42.4755 50.009 41.4083 50.009C41.0798 50.009 40.8331 49.9263 40.5864 49.8449C40.5033 49.0269 40.093 48.3731 39.4374 48.0476C39.4374 46.9854 40.3411 46.1675 41.4083 46.1675H41.4083ZM34.8372 46.2476C35.8227 46.2476 36.7264 47.0655 36.7264 48.1276V48.209C36.233 48.5359 35.9045 49.1083 35.8227 49.7621C35.576 49.9263 35.1657 50.0077 34.8372 50.0077C33.77 50.0077 32.8663 49.1083 32.8663 48.1276C32.8663 47.0655 33.77 46.2476 34.8372 46.2476Z" fill="white"/>
</g>
<path d="M61.1695 43.6796L62.0689 43.8533C62.7741 43.9862 63.5918 44.2417 63.5918 44.9981C63.5918 45.7135 62.8866 46.1121 62.0076 46.1121C60.9855 46.1121 60.3314 45.6011 60.1065 44.5892H58.829C58.9823 46.2143 60.1883 47.175 61.9463 47.175C63.4078 47.175 64.8898 46.4085 64.8898 44.9163C64.8898 43.4241 63.6531 42.9539 62.3551 42.6984L61.4454 42.5247C60.8118 42.402 60.3416 42.1158 60.3416 41.5435C60.3416 40.8178 61.1899 40.5623 61.7623 40.5623C62.488 40.5623 63.2647 40.8178 63.4794 41.707H64.7365C64.4401 40.1637 63.2954 39.4994 61.8338 39.4994C60.4745 39.4994 59.0334 40.1944 59.0334 41.5844C59.0334 42.8415 60.0043 43.4445 61.1695 43.6796ZM69.2088 46.2858V47.0422H70.4251V41.5435H69.2088V44.4768C69.2088 45.4682 68.8818 46.1836 67.9721 46.1836C67.0625 46.1836 66.9603 45.458 66.9603 44.7119V41.5435H65.744V45.0083C65.744 46.3165 66.2755 47.175 67.5837 47.175C68.3298 47.175 68.892 46.8582 69.2088 46.2858ZM73.0105 41.5435H71.7942V48.8308H73.0105V46.3165C73.3375 46.8582 73.9099 47.175 74.6458 47.175C75.9847 47.175 77.0068 46.061 77.0068 44.2928C77.0068 42.5349 75.9847 41.4208 74.6458 41.4208C73.9099 41.4208 73.3375 41.7377 73.0105 42.2794V41.5435ZM74.38 46.1836C73.5828 46.1836 72.9594 45.5602 72.9594 44.2928C72.9594 43.0255 73.5828 42.4122 74.38 42.4122C75.2284 42.4122 75.7394 43.1379 75.7394 44.2928C75.7394 45.458 75.2284 46.1836 74.38 46.1836ZM79.2187 41.5435H78.0025V48.8308H79.2187V46.3165C79.5458 46.8582 80.1181 47.175 80.854 47.175C82.1929 47.175 83.215 46.061 83.215 44.2928C83.215 42.5349 82.1929 41.4208 80.854 41.4208C80.1181 41.4208 79.5458 41.7377 79.2187 42.2794V41.5435ZM80.5883 46.1836C79.7911 46.1836 79.1676 45.5602 79.1676 44.2928C79.1676 43.0255 79.7911 42.4122 80.5883 42.4122C81.4366 42.4122 81.9476 43.1379 81.9476 44.2928C81.9476 45.458 81.4366 46.1836 80.5883 46.1836ZM89.3196 44.303C89.3196 42.3202 87.95 41.4208 86.6111 41.4208C85.2722 41.4208 83.9026 42.3202 83.9026 44.303C83.9026 46.2858 85.2722 47.175 86.6111 47.175C87.95 47.175 89.3196 46.2858 89.3196 44.303ZM86.6111 46.1836C85.8446 46.1836 85.1598 45.5704 85.1598 44.303C85.1598 43.0357 85.8446 42.4122 86.6111 42.4122C87.3777 42.4122 88.0624 43.0357 88.0624 44.303C88.0624 45.5704 87.3777 46.1836 86.6111 46.1836ZM93.324 42.7802V41.5537C93.232 41.5435 93.0991 41.5333 93.0071 41.5333C92.3428 41.5435 91.8113 41.9114 91.5149 42.5247V41.5435H90.3191V47.0422H91.5354V44.16C91.5354 43.0561 91.9749 42.7495 92.7414 42.7495C92.9254 42.7495 93.1196 42.7597 93.324 42.7802ZM94.2657 40.0921V41.5435H93.4481V42.4225H94.2657V45.6011C94.2657 46.7253 94.5008 47.0422 95.6762 47.0422H96.5756V46.1121H96.1361C95.6148 46.1121 95.482 45.9792 95.482 45.4171V42.4225H96.5858V41.5435H95.482V40.0921H94.2657Z" fill="#333333"/>
<rect x="58.5632" y="55.8825" width="116.077" height="5.84036" rx="2.92018" fill="#D5DCE1"/>
<circle cx="206.032" cy="38.5023" r="1.46009" fill="#333333"/>
<circle cx="206.032" cy="42.8825" r="1.46009" fill="#333333"/>
<circle cx="206.032" cy="47.2628" r="1.46009" fill="#333333"/>
<path d="M23.5211 77.9247H207.492" stroke="#E0E0E0" stroke-width="0.730045"/>
<rect x="23.5211" y="89.6054" width="17.5211" height="17.5211" rx="1.94679" fill="#F2F4F6"/>
<path opacity="0.5" fill-rule="evenodd" clip-rule="evenodd" d="M29.238 91.9858C29.238 91.4995 29.7086 91.1519 30.1735 91.2949L38.1251 93.7415C38.4284 93.8349 38.6353 94.1151 38.6353 94.4325V102.317C38.6353 102.803 38.1647 103.151 37.6999 103.008L29.7483 100.561C29.445 100.468 29.238 100.188 29.238 99.8705V91.9858Z" fill="#C2E6FF"/>
<path opacity="0.8" fill-rule="evenodd" clip-rule="evenodd" d="M27.4308 93.3593C27.4308 92.8729 27.9014 92.5254 28.3662 92.6684L36.3178 95.115C36.6211 95.2083 36.8281 95.4886 36.8281 95.8059V103.691C36.8281 104.177 36.3575 104.525 35.8926 104.382L27.9411 101.935C27.6378 101.842 27.4308 101.561 27.4308 101.244V93.3593Z" fill="#78C8FF"/>
<path fill-rule="evenodd" clip-rule="evenodd" d="M25.6237 94.7389C25.6237 94.2507 26.0975 93.9029 26.5633 94.0493L30.2861 95.2193L34.5066 96.4905C34.8119 96.5825 35.021 96.8638 35.021 97.1827V101.312V105.058C35.021 105.546 34.5471 105.894 34.0814 105.748L30.2861 104.555L26.1381 103.306C25.8327 103.214 25.6237 102.933 25.6237 102.614V98.6697V94.7389Z" fill="#0098FF"/>
<path fill-rule="evenodd" clip-rule="evenodd" d="M30.4762 97.0022C30.4003 96.9579 30.3085 96.952 30.2326 96.9865L28.0057 97.9999C27.9655 98.0182 27.9402 98.0563 27.9392 98.0998C27.9383 98.1433 27.9619 98.1855 28.0011 98.2104L30.0486 99.5141C30.0858 99.5381 30.1321 99.5427 30.1709 99.5264L32.6674 98.4998C32.7098 98.4822 32.7368 98.4429 32.7376 98.3978C32.7383 98.3526 32.7127 98.3091 32.671 98.2849L30.4762 97.0022ZM27.6158 98.6029C27.6558 98.584 27.7049 98.5878 27.7442 98.613L29.783 99.9103C29.8213 99.9346 29.8448 99.9756 29.8447 100.018V102.366C29.8441 102.409 29.8192 102.448 29.7793 102.466C29.7394 102.485 29.6906 102.481 29.6515 102.456L27.6749 101.199C27.598 101.151 27.551 101.068 27.551 100.983V98.7044C27.5511 98.6606 27.5758 98.6219 27.6158 98.6029ZM32.9733 98.9168C33.0127 98.9005 33.0596 98.9055 33.0972 98.93C33.1348 98.9545 33.1577 98.995 33.1578 99.037V101.333C33.1578 101.425 33.1033 101.506 33.0171 101.541L30.5389 102.561C30.4995 102.578 30.4524 102.573 30.4147 102.548C30.3771 102.524 30.3542 102.483 30.3544 102.441V100.07C30.3546 100.024 30.3818 99.9842 30.4247 99.9663L32.9733 98.9168Z" fill="white"/>
<rect x="46.8826" y="89.6054" width="17.5211" height="17.5211" rx="1.94679" fill="#F2F4F6"/>
<path d="M51.1534 100.986H51.9564V99.4235H53.5625V98.6423H51.9564V97.0727H51.1534V98.6423H49.54V99.4235H51.1534V100.986ZM55.2032 100.986H56.0719V95.6929H55.4295C55.1594 96.2697 54.7871 96.3354 54.0205 96.3573V96.9559H55.2032V100.986ZM60.7402 96.9559C60.7402 96.1675 60.032 95.598 58.9297 95.598C57.82 95.598 57.1192 96.1675 57.1192 96.9559C57.1192 97.4085 57.3309 97.8977 57.7981 98.1605C57.1703 98.4744 56.9585 98.9854 56.9585 99.4819C56.9585 100.526 57.82 101.081 58.9297 101.081C60.0393 101.081 60.9008 100.526 60.9008 99.4819C60.9008 98.9854 60.6891 98.4817 60.0612 98.1605C60.5431 97.8758 60.7402 97.4085 60.7402 96.9559ZM58.9297 96.2624C59.5064 96.2624 59.8787 96.5617 59.8787 97.0654C59.8787 97.5691 59.5064 97.905 58.9297 97.905C58.3602 97.905 57.9733 97.5691 57.9733 97.0654C57.9733 96.5617 58.3602 96.2624 58.9297 96.2624ZM57.8638 99.4527C57.8638 98.8613 58.2799 98.4963 58.9297 98.4963C59.5794 98.4963 59.9955 98.8613 59.9955 99.4527C59.9955 100.051 59.5794 100.409 58.9297 100.409C58.2799 100.409 57.8638 100.051 57.8638 99.4527Z" fill="#0098FF"/>
<path fill-rule="evenodd" clip-rule="evenodd" d="M186.219 96.0389C186.219 97.4753 185.054 98.6397 183.618 98.6397C182.181 98.6397 181.017 97.4753 181.017 96.0389C181.017 94.6026 182.181 93.4381 183.618 93.4381C185.054 93.4381 186.219 94.6026 186.219 96.0389ZM186.677 97.566C186.916 97.0924 187.04 96.5693 187.04 96.0389C187.039 95.5083 186.914 94.9853 186.674 94.5119C186.622 94.4055 186.644 94.2775 186.729 94.1948C187.21 93.7119 187.864 93.4397 188.546 93.4381C189.982 93.4381 191.146 94.6026 191.146 96.0389C191.146 97.4753 189.982 98.6397 188.546 98.6397C187.865 98.6374 187.212 98.3653 186.732 97.883C186.647 97.8003 186.624 97.6724 186.677 97.566ZM187.244 99.1287C187.663 98.9863 188.103 98.9136 188.546 98.9135C190.812 98.9159 192.65 100.753 192.652 103.02C192.652 103.171 192.529 103.294 192.378 103.294H188.819C188.668 103.294 188.546 103.171 188.546 103.02C188.545 101.732 188.038 100.496 187.135 99.5793C187.069 99.5118 187.042 99.4152 187.065 99.3237C187.087 99.2322 187.155 99.1585 187.244 99.1287ZM183.618 98.9135C185.886 98.9135 187.724 100.752 187.724 103.02C187.724 103.171 187.602 103.294 187.45 103.294H179.785C179.634 103.294 179.511 103.171 179.511 103.02C179.511 100.752 181.35 98.9135 183.618 98.9135Z" fill="#CACACA"/>
<path d="M201.712 99.1649C201.712 99.8731 201.252 100.289 200.668 100.289C199.974 100.289 199.639 99.8585 199.566 99.2452H198.726C198.792 100.158 199.42 100.961 200.653 100.961C201.705 100.961 202.61 100.333 202.61 99.1503C202.61 97.9604 201.77 97.3398 200.865 97.3398C200.391 97.3398 200.026 97.4639 199.77 97.6683L199.938 96.3397H202.391V95.5731H199.222L198.872 98.5152L199.69 98.559C199.799 98.2524 200.157 98.0042 200.646 98.0042C201.172 98.0042 201.712 98.3765 201.712 99.1649ZM204.074 97.9531C204.088 96.8653 204.512 96.1425 205.227 96.1425C205.702 96.1425 206.059 96.3908 206.118 96.9018H207.001C206.928 96.1937 206.403 95.4782 205.293 95.4782C203.745 95.4782 203.19 96.8507 203.19 98.3765C203.19 99.9242 203.804 100.961 205.176 100.961C206.315 100.961 207.103 100.209 207.103 99.1503C207.103 98.048 206.322 97.3471 205.344 97.3471C204.738 97.3471 204.307 97.6172 204.074 97.9531ZM205.169 100.289C204.57 100.289 204.139 99.8658 204.139 99.1649C204.139 98.4714 204.577 98.0334 205.176 98.0334C205.775 98.0334 206.205 98.4714 206.205 99.1649C206.205 99.8658 205.775 100.289 205.169 100.289Z" fill="#333333"/>
</g>
<defs>
<filter id="filter0_d_1_377" x="11.8391" y="0.539977" width="207.333" height="110.237" filterUnits="userSpaceOnUse" color-interpolation-filters="sRGB">
<feFlood flood-opacity="0" result="BackgroundImageFix"/>
<feColorMatrix in="SourceAlpha" type="matrix" values="0 0 0 0 0 0 0 0 0 0 0 0 0 0 0 0 0 0 127 0" result="hardAlpha"/>
<feOffset dy="-1.46009"/>
<feGaussianBlur stdDeviation="2.92018"/>
<feComposite in2="hardAlpha" operator="out"/>
<feColorMatrix type="matrix" values="0 0 0 0 0 0 0 0 0 0 0 0 0 0 0 0 0 0 0.05 0"/>
<feBlend mode="normal" in2="BackgroundImageFix" result="effect1_dropShadow_1_377"/>
<feBlend mode="normal" in="SourceGraphic" in2="effect1_dropShadow_1_377" result="shape"/>
</filter>
<filter id="filter1_d_1_377" x="6.00034" y="6.38031" width="219.013" height="110.237" filterUnits="userSpaceOnUse" color-interpolation-filters="sRGB">
<feFlood flood-opacity="0" result="BackgroundImageFix"/>
<feColorMatrix in="SourceAlpha" type="matrix" values="0 0 0 0 0 0 0 0 0 0 0 0 0 0 0 0 0 0 127 0" result="hardAlpha"/>
<feOffset dy="-1.46009"/>
<feGaussianBlur stdDeviation="2.92018"/>
<feComposite in2="hardAlpha" operator="out"/>
<feColorMatrix type="matrix" values="0 0 0 0 0 0 0 0 0 0 0 0 0 0 0 0 0 0 0.05 0"/>
<feBlend mode="normal" in2="BackgroundImageFix" result="effect1_dropShadow_1_377"/>
<feBlend mode="normal" in="SourceGraphic" in2="effect1_dropShadow_1_377" result="shape"/>
</filter>
<filter id="filter2_d_1_377" x="0.159643" y="12.2207" width="230.694" height="116.807" filterUnits="userSpaceOnUse" color-interpolation-filters="sRGB">
<feFlood flood-opacity="0" result="BackgroundImageFix"/>
<feColorMatrix in="SourceAlpha" type="matrix" values="0 0 0 0 0 0 0 0 0 0 0 0 0 0 0 0 0 0 127 0" result="hardAlpha"/>
<feOffset dy="-1.46009"/>
<feGaussianBlur stdDeviation="2.92018"/>
<feComposite in2="hardAlpha" operator="out"/>
<feColorMatrix type="matrix" values="0 0 0 0 0 0 0 0 0 0 0 0 0 0 0 0 0 0 0.05 0"/>
<feBlend mode="normal" in2="BackgroundImageFix" result="effect1_dropShadow_1_377"/>
<feBlend mode="normal" in="SourceGraphic" in2="effect1_dropShadow_1_377" result="shape"/>
</filter>
<clipPath id="clip0_1_377">
<rect width="13.1408" height="13.1408" fill="white" transform="translate(31.5524 45.0724)"/>
</clipPath>
</defs>
</svg>
